<?xml version="1.0" standalone="no"?>
<!DOCTYPE svg PUBLIC "-//W3C//DTD SVG 20010904//EN"
 "http://www.w3.org/TR/2001/REC-SVG-20010904/DTD/svg10.dtd">
<svg version="1.0" xmlns="http://www.w3.org/2000/svg"
 width="700.000000pt" height="700.000000pt" viewBox="0 0 700.000000 700.000000"
 preserveAspectRatio="xMidYMid meet">
<metadata>
Created by potrace 1.11, written by Peter Selinger 2001-2013
</metadata>
<g transform="translate(0.000000,700.000000) scale(0.100000,-0.100000)"
fill="#000000" stroke="none">
<path d="M4668 6986 c-43 -23 -65 -40 -121 -94 -73 -70 -99 -104 -277 -355
-86 -122 -203 -288 -261 -369 -57 -81 -187 -265 -289 -409 -102 -144 -203
-287 -226 -318 -22 -31 -139 -195 -259 -366 -120 -170 -222 -312 -225 -315 -4
-3 -10 -12 -13 -20 -4 -8 -35 -54 -70 -102 -34 -47 -200 -281 -369 -520 -168
-238 -412 -581 -541 -763 -228 -321 -234 -331 -220 -355 12 -20 741 -1046 803
-1130 17 -23 308 -430 385 -540 303 -429 895 -1253 918 -1277 16 -17 41 -37
56 -42 18 -8 260 -10 787 -9 l760 3 -135 183 c-75 100 -152 204 -171 230 -19
26 -95 129 -168 227 -73 99 -173 236 -223 305 -50 69 -97 134 -105 145 -8 11
-196 270 -417 576 -397 548 -562 773 -855 1164 -127 170 -148 203 -139 220 5
10 33 51 62 90 72 97 403 558 822 1145 195 272 360 503 368 512 7 9 22 29 32
45 9 15 29 44 44 63 14 19 117 161 228 315 111 154 207 287 214 295 7 8 23 31
37 50 33 48 322 442 333 455 5 6 163 217 352 470 189 253 348 465 352 470 31
36 43 35 -709 35 -615 0 -737 -2 -760 -14z"/>
<path d="M915 6150 l-79 -5 -1 -1328 c0 -731 2 -1333 5 -1337 3 -5 311 421
685 946 374 525 688 964 697 977 9 12 82 114 162 227 80 113 195 274 256 359
61 85 108 156 106 158 -6 6 -1736 9 -1831 3z"/>
<path d="M840 1287 l0 -1287 943 0 c903 0 941 1 907 18 -29 14 -94 89 -148
168 -7 11 -99 141 -205 289 -105 149 -199 280 -207 292 -8 12 -114 160 -235
330 -121 169 -284 398 -362 508 -78 110 -149 209 -157 220 -8 11 -130 182
-270 379 -141 197 -258 361 -261 364 -3 3 -5 -574 -5 -1281z"/>
</g>
</svg>
