<?xml version="1.0" encoding="utf-8"?><svg xmlns="http://www.w3.org/2000/svg" xmlns:xlink="http://www.w3.org/1999/xlink"><symbol viewBox="0 0 90.73 100" id="church-icon" xmlns="http://www.w3.org/2000/svg"><title>church-icon</title><path fill="#00a9ce" d="M.62 100A3.77 3.77 0 0 1 0 98.76v-4.19c0-.94.41-1.3 1.31-1.26h1.5V92.1 75.01a1.93 1.93 0 0 1 1.28-2c6.38-3 12.73-6.07 19.11-9.09a1.22 1.22 0 0 0 .8-1.33c-.05-1.92 0-3.84 0-5.76a1.66 1.66 0 0 1 1-1.7c2.21-1.17 4.39-2.41 6.6-3.59a1.25 1.25 0 0 0 .76-1.29V32.18a3.44 3.44 0 0 1 .64-1.94c3.57-4.64 7.22-9.23 10.8-13.86a2.84 2.84 0 0 0 .55-1.57c.06-2.44 0-4.87 0-7.46h-3.17a2 2 0 0 1-1-.08c-.31-.19-.76-.68-.69-.85.15-.36.58-.83.93-.86 1.26-.1 2.53 0 4 0V2.02v-1c0-.59.34-1.11.94-1a1.36 1.36 0 0 1 .83 1c.11 1.26 0 2.54.05 3.81 0 .19 0 .38.06.71H50c.64 0 1.22.19 1.18 1s-.59.86-1.2.87h-3.7c0 .42-.05.76-.05 1.1v6.35a2.88 2.88 0 0 0 .55 1.58q5.31 6.88 10.7 13.69a3.31 3.31 0 0 1 .78 2.21v18a1.3 1.3 0 0 0 .82 1.35c2.19 1.14 4.34 2.36 6.53 3.5a1.78 1.78 0 0 1 1.09 1.85c-.06 1.89 0 3.78 0 5.66a1.22 1.22 0 0 0 .85 1.31c6.38 3 12.73 6.08 19.11 9.08a1.93 1.93 0 0 1 1.29 2v18.3h1.5c.89 0 1.33.32 1.3 1.26v4.2a3.76 3.76 0 0 1-.58 1.24zm60-11.58a3.76 3.76 0 0 0 .05-.4V60.08a1.4 1.4 0 0 0-.66-1c-2.09-1.13-4.21-2.2-6.32-3.29a3.65 3.65 0 0 1-1.08-.64c-.21-.24-.39-.79-.26-1a1.52 1.52 0 0 1 1-.49c.24 0 .53.2.79.33 2.37 1.21 4.73 2.47 7.13 3.63a2 2 0 0 1 1.3 2.13V88.4h2.33v-.62V57.5c0-.67-.33-.88-.81-1.15Q55.05 51.46 46 46.52a1.52 1.52 0 0 0-1.68 0q-8.79 4.87-17.62 9.67a1.54 1.54 0 0 0-.94 1.57v30.59h8.28v-1.19-14a10.18 10.18 0 0 1 6-9.7c2.54-1.26 5.29-1.15 8-.75 5 .76 8.47 5 8.5 10.37v15.26zM4.71 93.34h64.78a2.69 2.69 0 0 1 1.06 0c.33.15.79.55.76.8a1.44 1.44 0 0 1-.76.91 2.8 2.8 0 0 1-1.16.05H1.89v3h87v-3h-8.1a21.64 21.64 0 0 1-2.73 0c-.33 0-.61-.52-.91-.8.3-.31.56-.8.92-.9a7.43 7.43 0 0 1 1.85 0H86v-2.34c0-.22 0-.44-.05-.66H4.71zm49.94-4.93a1.43 1.43 0 0 0 .09-.32c0-5.18.05-10.36 0-15.53a8 8 0 0 0-3-6.13c-2-1.68-4.28-2-6.75-2-5.54 0-9.05 3.5-9.07 9v14c0 .34 0 .68.05 1zm-9.3-71c-3.68 4.7-7.28 9.27-10.85 13.87a2.06 2.06 0 0 0-.3 1.18q-.07 8.25-.1 16.5c0 .31 0 .62.05 1 1.1-.25 1.58-.75 1.5-1.9-.11-1.82 0-3.64 0-5.46v-.88c0-.61.23-1.11 1-1.11s.86.49.88 1.06v6.55c.45-.23.74-.36 1-.51 1.88-1 3.78-2 5.64-3.1a1.87 1.87 0 0 1 2.08 0c1.46.85 3 1.63 4.45 2.43l5.81 3.14c0-.27.06-.42.06-.57V32.33a2.19 2.19 0 0 0-.49-1.2c-1.72-2.25-3.48-4.46-5.23-6.69zm36.21 71V78.18c0-.25-.34-.6-.6-.73-1.74-.87-3.51-1.7-5.27-2.55s-3.29-1.56-4.91-2.38a1.46 1.46 0 0 1-.67-.86.88.88 0 0 1 .43-.76 2.17 2.17 0 0 1 1.26.14c3.5 1.64 7 3.35 10.49 5a1.8 1.8 0 0 1 1.16 1.9v9.48c0 .34 0 .68.05 1H86V75.27c0-.29-.41-.69-.72-.84q-8.88-4.27-17.78-8.49c-.22-.11-.46-.17-.74-.27V88.4zm-74.28 0V77.87A1.79 1.79 0 0 1 8.45 76c2.89-1.33 5.76-2.73 8.64-4.1a15.37 15.37 0 0 1 2.22-1 1.21 1.21 0 0 1 1.1.4c.13.27-.14.79-.34 1.14-.11.19-.44.25-.67.37-3.14 1.5-6.26 3-9.42 4.49a1.35 1.35 0 0 0-.9 1.48V88.41H23.9V65.65a4.29 4.29 0 0 0-.5.16q-9.07 4.32-18.15 8.62c-.58.27-.6.67-.59 1.18v11.92c0 .28 0 .56.07.87z"/><path fill="#00a9ce" d="M49.47 52c0 .76-.57 1.21-1.14 1A27.62 27.62 0 0 1 45 51.27a1.22 1.22 0 0 1-.27-1.14 1.09 1.09 0 0 1 1-.38 34.82 34.82 0 0 1 3.28 1.68c.27.13.38.46.46.57z"/></symbol><symbol viewBox="0 0 97.26 99.98" id="fashion-icon" xmlns="http://www.w3.org/2000/svg"><title>fashion-icon</title><path fill="#00a9ce" d="M61.52 0A4.72 4.72 0 0 1 62 1.41q.05 8 0 15.91a7.54 7.54 0 0 1-3.25 6.33c-1.94 1.45-2.36 3.64-2.17 5.87a17.75 17.75 0 0 0 4.29 10.42c9.41 11 18.67 22.05 28 33.1l7.8 9.25c.83 1 .8 1.21-.17 2.06-7.5 6.54-16.33 10.45-25.85 12.9A87.79 87.79 0 0 1 41 99.64 79.13 79.13 0 0 1 10.47 91a50.27 50.27 0 0 1-9.71-6.65c-1-.85-1-1.08-.16-2.07l28.17-33.44 3.09-3.68c-1.41.39-2.57.78-3.76 1-2 .41-4 .75-6 1.09-.83.14-1.28-.19-1.36-1.08a23.28 23.28 0 0 1 2.73-13.27 1.41 1.41 0 0 1 1.82-.8 34.37 34.37 0 0 1 12.19 5.24c.18.12.38.23.67.42 1.78-3.56 3.14-7.12 2.28-11.14a5 5 0 0 0-2-3.06 7.39 7.39 0 0 1-3.19-6.26v-16a4.23 4.23 0 0 1 .5-1.3h.78a5.73 5.73 0 0 1 .39 1.34c.06 1.23 0 2.47 0 3.7v3.27c4.59-.34 8.76.06 11.65 4.16 2.82-4.41 7.24-4.29 11.74-4v-7A5.94 5.94 0 0 1 60.74 0zm-49.4 90.27l3.49-6.6a11.59 11.59 0 0 1 1-1.87 1.28 1.28 0 0 1 1.13-.31c.2.06.3.67.33 1s-.21.46-.33.69L14.17 90c-.12.24-.21.49-.32.74a71.75 71.75 0 0 0 12.83 4.67c.12-.39.21-.7.3-1 .57-2 1.1-4.08 1.74-6.09a1.32 1.32 0 0 1 1-.7c.59 0 .69.58.56 1.12-.05.22-.12.44-.18.66L28.32 96 42 98.18l1.88-36.58c-.84.66-1.94.52-2.06 1.86-.42 5.09-.93 10.17-1.41 15.26-.43 4.53-.86 9.07-1.35 13.6 0 .37-.51.69-.79 1a4.15 4.15 0 0 1-.94-.82c-.39-.63-.58-1.38-1-2a8.9 8.9 0 0 0-6.73-4c-1.6-.19-1.76-.56-1-2a24 24 0 0 0 1.61-3.65c2.06-6.33 4-12.69 6.11-19a3.33 3.33 0 0 0-.41-2.61c-.84 3.06-1.59 6.2-2.57 9.25a46.88 46.88 0 0 1-7.79 15.08 20.11 20.11 0 0 1-3.32 3.12c-.77.61-1.36.19-1.55-.78a10.4 10.4 0 0 0-.85-3.06 47.65 47.65 0 0 0-3.31-4.92c-.57-.77-.56-1.26.14-1.9 1.22-1.12 2.43-2.27 3.53-3.5a50.56 50.56 0 0 0 9.23-15.84c1.12-2.93 2-6 2.93-8.95l-.29-.13L1.85 83.43zm43.52-48.82l14.94 54a69.55 69.55 0 0 0 12.88-4.71c-.13-.28-.21-.46-.3-.63L58 42.35c-.71-1.35-.71-1.35-2.36-.9zm-3.3.2c.31 2.42-.24 5 1.43 7.18a12.56 12.56 0 0 1 .84 1.86 2.28 2.28 0 0 1-.61 3.16 2.52 2.52 0 0 0-.89 2.41c.19 2.24.27 4.48.39 6.72l1.44 28.37c.11 2.2.25 4.4.39 6.7a80.67 80.67 0 0 0 13.6-2.11c-.11-.41-.18-.73-.27-1L54.17 42.59c-.35-1.27-.35-1.27-1.83-.94zm43 41.77L59.57 41l-.25.18 25.82 49.09zM51.45 56.69A169.38 169.38 0 0 0 46 60.56a1.46 1.46 0 0 0-.42 1c-.17 2.89-.3 5.78-.45 8.67Q44.57 80.8 44 91.36c-.12 2.23-.22 4.46-.33 6.78h9.92zm8.8-46.47a38.89 38.89 0 0 0-5.21 0c-2.82.38-4.88 1.84-5.54 4.84a1.24 1.24 0 0 1-.88.8 1.3 1.3 0 0 1-.89-.82A6.1 6.1 0 0 0 45 11.23c-2.49-1.45-5.18-1.47-8-1.1 0 2.67-.15 5.28 0 7.86a5.14 5.14 0 0 0 5.1 5.07c4.38.18 8.78.15 13.16 0a5.09 5.09 0 0 0 4.91-4.72c.24-2.65.07-5.34.07-8.11zM38.9 61.9a.86.86 0 0 0 .25 0 32.7 32.7 0 0 0 13.77-9.43 1.06 1.06 0 0 0 .14-.92 28.7 28.7 0 0 0-1.8-3.77c-2.48-4-5.87-6.72-10.67-7.44a.93.93 0 0 0-1.15.54 22.1 22.1 0 0 0-2.84 12.76 21.36 21.36 0 0 0 2.3 8.26zM22.38 84.78c1.24-1.57 2.46-2.85 3.4-4.31a58.48 58.48 0 0 0 9-28.56 58.47 58.47 0 0 1 1.07-7 20.6 20.6 0 0 1 .95-2.82 8 8 0 0 0-2.7 4.79 51.27 51.27 0 0 1-1.74 6.59 55.52 55.52 0 0 1-9.59 18.6c-1.43 1.76-3 3.37-4.61 5.1a20.55 20.55 0 0 1 4.22 7.61zm15.31 4.33l2.42-25.5-2.43.2-6.91 21.05a25 25 0 0 1 3.6 1.55 29.65 29.65 0 0 1 3.32 2.7zM24.14 35.48a21.23 21.23 0 0 0-1.76 10.08c4.21-.6 8.2-1.38 11.84-3.39a7.08 7.08 0 0 0 1.34-1.3c-2.15-.59-4.19-1.07-6.17-1.73a10.53 10.53 0 0 1-5.25-3.66zm22.62-10.56V39.8h3.77V24.92zm11.35 14.49c-2.49-4.69-4.28-9.32-2.57-14.5h-3.18v14.93zm-18.32-1l5.11 1.24V24.89h-3.23c1.71 4.85.09 9.2-1.88 13.5zm-14.35-4.48c.77 2.77 7.41 5 11.3 5a31.6 31.6 0 0 0-11.3-5zm22.62 7.69l2.75 2.55-.18-2.55z"/><path fill="#00a9ce" d="M43.09 53.56c-.17.17-.45.64-.67.61a1.42 1.42 0 0 1-1-.65c-.55-1.35-1-2.74-1.44-4.13a36.33 36.33 0 0 1-1-3.75c-.07-.34.34-.77.53-1.16.36.2.94.32 1 .61.87 2.64 1.66 5.32 2.47 8 .02.07.02.17.11.47zM41.6 41.9a2.26 2.26 0 0 1 .61.51c1.1 1.76 2.18 3.53 3.26 5.3.29.47.35 1-.21 1.24a1.32 1.32 0 0 1-1.2-.35c-1.15-1.73-2.22-3.51-3.27-5.29a.86.86 0 0 1 .81-1.41z"/></symbol><symbol viewBox="0 0 101 100" id="finance-2-icon" xmlns="http://www.w3.org/2000/svg"><title>finance-2-icon</title><path fill="#00a9ce" d="M0 92.14l2.95-.7V87.9c0-.94.37-1.33 1.29-1.28h2v-3.23c0-1.04.38-1.34 1.31-1.3h2v-41.2H7.37c-.71 0-1.08-.34-1.07-1.08v-3.15a1.24 1.24 0 0 0-.41-.89 4.54 4.54 0 0 1-2-4.13v-3.4c-1.63-.34-1.63-.34-1.63-1.95a8.53 8.53 0 0 0 0-1.38c-.26-1.56.4-2.34 1.85-3Q26.73 11.18 49.36.3a2.39 2.39 0 0 1 2.3 0q22.87 10.93 45.78 21.8c1.07.51 1.6 1.08 1.44 2.29a16.26 16.26 0 0 0 0 2.17c0 1.5 0 1.53-1.61 1.71v3.41a4.52 4.52 0 0 1-2 4.14 1.16 1.16 0 0 0-.41.79c-.05.79 0 1.58 0 2.37 0 2-.05 2-2 2h-1.3v41.15h2.12a1 1 0 0 1 1.14 1.15v3.36h1.53c1.61 0 1.7.09 1.7 1.65v3.42h1.88c.61 0 1.08.34 1.07 1.08v6.11c0 .75-.39 1.07-1.1 1.08H1.77A6.46 6.46 0 0 1 0 99.44v-7.3zM40.11 41v41.13h2.11c.82 0 1.2.39 1.18 1.22v3.26h14.2v-3.32a.94.94 0 0 1 1.07-1.09h2.2V41h-2c-.86 0-1.27-.35-1.25-1.24v-3.27H43.4v3.31c0 .84-.37 1.21-1.19 1.2zm54.18-18.5l-1.08-.55Q72.28 12 51.36 2a1.78 1.78 0 0 0-1.73 0Q28.67 12 7.7 22c-.25.12-.49.26-.93.5zm1.34 5.66H5.35c0 1.1.07 2.15 0 3.19-.16 1.95.91 3.47 3.46 3.46 18.11-.06 36.22 0 54.33 0h29.47c1.78 0 2.93-.94 3-2.56.07-1.35.02-2.67.02-4.1zm3.7 65.23H1.68v4.92h97.65zm-22.21-6.77v-3.28c0-.79.33-1.15 1.11-1.14s1.42 0 2.17 0V41h-1.9c-1.17 0-1.38-.22-1.39-1.37s0-2.07 0-3.12h-1.78v3.33A1 1 0 0 1 74.2 41h-2.13v41.13H74c1.07 0 1.32.27 1.33 1.36s0 2.07 0 3.13zM20.61 41v41a1 1 0 0 0 .24.1h1.58c1.24 0 1.44.21 1.44 1.42v3h1.79v-3.21c0-.83.36-1.21 1.19-1.19s1.36 0 2.08 0V41h-1.82c-1.23 0-1.44-.22-1.45-1.43V36.5h-1.78v3.31c0 .85-.37 1.21-1.18 1.2zm42 .05V82.1h7.69V41zM30.66 82.1h7.69V41h-7.69zM11.24 41v41.13h7.64V41zm70.85 41.13h7.7V41.06h-7.7zm14.31 6.25H4.63v3.27H96.4zm.8-64.15H3.84v2.18h93.35zM41.72 36.42H27.84a.75.75 0 0 0-.51.52c-.06.74 0 1.49 0 2.29h14.39zm17.56 2.81h14.33v-2.74H59.27zm-37-2.77H7.9v2.77h14.33zm70.89 0H78.78v2.76h14.34zM27.36 86.62h14.36v-2.73H27.36zm31.95-2.73v2.72h14.32v-2.72zM7.87 86.56H22.2v-2.69H7.87zm85.21 0v-2.67H78.8v2.71z"/><path fill="#00a9ce" d="M50.48 17.2a4.44 4.44 0 0 1 .06-8.88 4.44 4.44 0 1 1-.06 8.88zm2.82-4.46a2.79 2.79 0 1 0-2.75 2.85 2.8 2.8 0 0 0 2.75-2.85zM55.32 65a7.42 7.42 0 0 1-2.73.6v-11a6.4 6.4 0 0 1 2.67.56l.45-1.53a8.56 8.56 0 0 0-3.12-.63v-3h-2v3.18a6.8 6.8 0 0 0-5.55 7.07c0 3.79 2.14 6.37 5.55 6.87v3.09h2v-3a9.06 9.06 0 0 0 3.07-.69zm-8.1-4.88a5.19 5.19 0 0 1 3.41-5.27v10.5c-2.09-.65-3.41-2.59-3.41-5.21z"/></symbol><symbol viewBox="0 0 90.85 99.69" id="finance-icon" xmlns="http://www.w3.org/2000/svg"><title>finance-icon</title><path fill="#00a9ce" d="M33.2 0a34.38 34.38 0 0 1 4.38.77c2.68.82 5.32 1.79 7.95 2.78 1.11.42 1.19.82.67 1.89C44.49 9 42.79 12.57 41 16.1c-.81 1.62-.34 3.31-.43 5 0 .15.3.4.51.47a31.05 31.05 0 0 1 11.69 7.51c.24-.28.47-.54.69-.8l7.25-8.9c1-1.23 1.25-1.25 2.39-.21l2.8 2.57 3.88-4.52.63-.74c.82-1 1.15-1 2.08-.19L87.43 29c2.41 2.06 2.34 1.65.29 4.05-1.64 1.93-3.27 3.86-4.94 5.76a.86.86 0 0 0-.08 1.25c2.56 4 5.08 8 7.62 12 .79 1.25.75 1.46-.47 2.23q-10.38 6.6-20.78 13.18a1.46 1.46 0 0 0-.85 1.53c.08.8 0 1.6 0 2.38 5.43-2.64 11-2.67 16.69-1.32a9.86 9.86 0 0 1 1.73.63 3.29 3.29 0 0 1 2.29 3.53 32.91 32.91 0 0 0 0 3.89 3 3 0 0 1-1.19 2.53 1.66 1.66 0 0 0-.51 1.13c0 3.34-.11 6.68 0 10a3.53 3.53 0 0 1-2.43 3.66 19.47 19.47 0 0 1-6.91 1.42 23.41 23.41 0 0 1-9.61-1.3 3.53 3.53 0 0 1-2.56 2.63 24 24 0 0 1-16.55 0A3.82 3.82 0 0 1 46.75 96c-.08-.22-.62-.37-.94-.37H30.73c-5.42 0-10.83.06-16.25-.07-6.86-.16-13.21-6-14.17-12.76a18.9 18.9 0 0 1-.22-2.61c0-10.25-.26-20.51.1-30.74C.58 38.51 5.81 30.13 15 24.32a42.13 42.13 0 0 1 5.32-2.58 1.19 1.19 0 0 0 .85-1.18 11 11 0 0 0-1.39-6.32C18.29 11.42 17 8.48 15.59 5.6c-.59-1.29-.59-1.49.69-2.11A31.54 31.54 0 0 1 27.88.16a4.07 4.07 0 0 0 .65-.16zm13.42 70a20.06 20.06 0 0 1-34.86-18.47 20 20 0 0 1 20.38-14 19.28 19.28 0 0 1 11.38 4.48 19.86 19.86 0 0 1 7.37 15.18H60c-.1-3.36 0-6.63-.35-9.82-1.26-10.21-6.57-17.77-15.6-22.64a13 13 0 0 0-5.24-1.86c-5.27-.25-10.57-.1-15.85-.08a4 4 0 0 0-1.32.23A29.23 29.23 0 0 0 1.8 51.12v28.51a16 16 0 0 0 .36 3.66C3.73 89.76 9.1 93.88 16 93.89h29.77c.28 0 .56 0 .87-.06zm2.51-12.17A18.14 18.14 0 0 0 33 39.43a18 18 0 0 0-19.62 12.85 18.19 18.19 0 0 0 10.23 22.06c7.81 3.48 17.9.58 22-6.13a25.4 25.4 0 0 1-.37-2.56c-.06-1.39 0-2.79 0-4.18a2.44 2.44 0 0 1 1.3-2.33c.82-.47 1.69-.84 2.59-1.3zM34.89 16.15h3.4a1.11 1.11 0 0 0 1.22-.8c1.4-3 2.83-5.89 4.26-8.83l.78-1.61a30.86 30.86 0 0 0-27.36 0c1.76 3.66 3.45 7.19 5.16 10.71a.91.91 0 0 0 .61.48h3.85c-.72-1.86-1.37-3.58-2-5.29-.22-.56-.33-1.12.34-1.41s1 .24 1.27.81c.6 1.54 1.26 3.06 1.77 4.62.32 1 .78 1.42 1.85 1.29s2.23.27 2.92-.21.85-1.74 1.22-2.67.81-2.11 1.23-3.17c.21-.53.55-.94 1.18-.71s.66.74.44 1.29l-.28.72zm32 45.65l1-.64c4-2.52 7.91-5.07 11.89-7.56a1.81 1.81 0 0 0 1.11-1.88 4.89 4.89 0 0 1 .42-1.46 1.22 1.22 0 0 0 0-.78c-.39-.7-.87-1.35-1.35-2.09l-1.93 1.22c-.52.33-1.07.48-1.43-.14s0-1 .54-1.35 1.24-.8 1.88-1.21c-.33-.51-.63-.93-.87-1.39-.36-.71-.76-1.18-1.7-1a2.36 2.36 0 0 1-1.47-.4 1 1 0 0 0-1.22.08q-5.77 3.69-11.57 7.34a1.19 1.19 0 0 0-.63 1.18V56c0 1.63 0 1.59 1.57 2.11 1.87.54 3.61 1.21 3.73 3.68zm8.91-34.44c-.33-.29-.64-.53-.91-.8-.7-.72-1.4-1.29-2.5-.7a1.56 1.56 0 0 1-1.14 0c-.72-.27-1 .12-1.45.59-3 3.5-5.92 7.06-9 10.45-1.26 1.33-1.63 2.44-.8 4.1a17.75 17.75 0 0 1 1 3.24l.94-.58q7.6-4.81 15.19-9.62a1.41 1.41 0 0 1 2 .06 9.09 9.09 0 0 0 0-3.57c-.27-.82-1.33-1.38-2.06-2.08a16.65 16.65 0 0 1-1.66 1.84 1.39 1.39 0 0 1-1.23.23c-.57-.31-.4-.87 0-1.32zm-7.9 38.88l20.92-13.33-10.93-17.2h-.2q-8 5-15.93 10.09a.93.93 0 0 0-.37.69c0 .75.14 1.5.23 2.36l1.12-.69c3.64-2.31 7.28-4.61 10.91-6.94.65-.42 1.2-.56 1.81.06a1.63 1.63 0 0 0 1.88.36 1 1 0 0 1 1.41.48q2.25 3.58 4.53 7.14a1.19 1.19 0 0 1-.11 1.49 2.54 2.54 0 0 0-.51 1.73 1.48 1.48 0 0 1-.86 1.88c-4.77 3-9.51 6.05-14.27 9.08-.85.54-.94 1.07-.35 1.91.2.27.41.52.69.88zm-9.44-29.36c.21-.24.43-.47.64-.71 3.35-3.92 6.71-7.83 10-11.77a1.46 1.46 0 0 1 1.85-.5 2.72 2.72 0 0 0 1.79-.23 1.21 1.21 0 0 1 1.49.11q3.25 2.79 6.52 5.55a1.08 1.08 0 0 1 .32 1.37c-.18.49-.38 1.25-.14 1.55.92 1.2.25 2-.52 2.76a7.1 7.1 0 0 0-.52.68l1.46 2.16 5.81-6.8-15.53-13.29c-.25.28-.45.48-.64.7L58.61 32.84C57 34.71 57 34.7 58.34 36.77a1 1 0 0 0 .12.11zm10.76 39c-.09 3.39-.58 3.34 2.63 4.37a21.27 21.27 0 0 0 9 .66 31.1 31.1 0 0 0 5.33-1.34 1.65 1.65 0 0 0 1-1.07 15.93 15.93 0 0 0 0-2.66 25.81 25.81 0 0 1-17.96 0zM47.08 63.7c-.16 3.33-.62 3.39 2.79 4.4a22.59 22.59 0 0 0 9.83.52 23.83 23.83 0 0 0 4.45-1.29A1.68 1.68 0 0 0 65 66.2a15 15 0 0 0 0-2.53 25.76 25.76 0 0 1-17.92.03zm1.39 5.89c-.23 2.05-.05 2.4 1.87 3.07a20.7 20.7 0 0 0 9.29.94 39.44 39.44 0 0 0 5.74-1.29c.43-.11 1-.61 1.06-1a27.74 27.74 0 0 0 .05-3.38C60.7 71.48 54.63 71 48.47 69.59zm18 9a21.52 21.52 0 0 1-9.07 1.69 21.39 21.39 0 0 1-9-1.68c-.22 2.84 0 3.22 2.61 4l.46.14a23.84 23.84 0 0 0 9.15.46 28.74 28.74 0 0 0 4.84-1.29 1.7 1.7 0 0 0 .92-1.09 10.5 10.5 0 0 0 .11-2.26zm-18 9.77c-.17 2.8-.42 2.83 2.53 3.9h.09a22.49 22.49 0 0 0 8.66.68 34.87 34.87 0 0 0 5.63-1.32 1.8 1.8 0 0 0 1-1.1 9.05 9.05 0 0 0 0-2.19 25.74 25.74 0 0 1-17.89 0zm7.76-24.76a23.65 23.65 0 0 0 2.77-.21 31.83 31.83 0 0 0 4.34-1A6.61 6.61 0 0 0 65 61.14c-.55-.41-1.07-.86-1.65-1.21a3.62 3.62 0 0 0-1.19-.4 35.82 35.82 0 0 0-3.82-.65A21.67 21.67 0 0 0 48.6 60a7.34 7.34 0 0 0-1.6 1.13 7.55 7.55 0 0 0 1.6 1.24 20.88 20.88 0 0 0 7.65 1.2zm-7.79 10.23c-.07 2.74-.53 2.88 2.14 3.72a22.81 22.81 0 0 0 13.87 0c2.18-.68 2.5-1.42 1.9-3.65a25.76 25.76 0 0 1-17.91-.07zM66.5 83.5a25.93 25.93 0 0 1-18 0c-.21 2.78-.36 2.79 2.37 3.83.09 0 .19 0 .28.07a22.61 22.61 0 0 0 9.05.62 31.5 31.5 0 0 0 5.25-1.29 1.82 1.82 0 0 0 1-1.13 8.71 8.71 0 0 0 .05-2.1zm0 9.67a25.65 25.65 0 0 1-18 0c-.37 2.58-.11 3 2.3 3.81a20.91 20.91 0 0 0 8.94.78 39.35 39.35 0 0 0 5.73-1.36 1.68 1.68 0 0 0 1-1 9.76 9.76 0 0 0 .03-2.23zm11.83-22.24a20 20 0 0 0-7.76 1.27 6.48 6.48 0 0 0-1.36 1.11c.45.38.84 1 1.36 1.11a32 32 0 0 0 5.18 1.15 20.87 20.87 0 0 0 9.93-1.08 6.84 6.84 0 0 0 1.49-1.12 7 7 0 0 0-1.49-1.21 19.14 19.14 0 0 0-7.35-1.23zM68.22 85.82v1c0 2.18 0 2.17 2.12 2.76a22 22 0 0 0 8.38.62 34.84 34.84 0 0 0 5.72-1.36 1.67 1.67 0 0 0 1-1.07 11.2 11.2 0 0 0 0-2.31 25.81 25.81 0 0 1-17.22.36zm0 4.93a17.53 17.53 0 0 0 0 2.24 1.24 1.24 0 0 0 .62.89 22.67 22.67 0 0 0 14.87.12c1.84-.67 2.27-1.71 1.58-3.56a25.68 25.68 0 0 1-17.07.31zM38.76 17.94H23v3.16h15.76zM62 20.54l-8 9.86 2.18 2.77 8.61-10.1zm6.2 60v2.48a1 1 0 0 0 .8 1.17 21.92 21.92 0 0 0 9 1.14 15.65 15.65 0 0 0 6.49-1.44c1-.51 1.12-.92.77-2-5.74 1.25-11.42 1.44-17.04-1.32z"/><path fill="#00a9ce" d="M20.14 59a4.16 4.16 0 0 1-1.25-.68 1.21 1.21 0 0 1 .17-1 9.11 9.11 0 0 1 2.22 0c.11 0 .33.82.19 1a5.06 5.06 0 0 1-1.33.68zM41.27 58.79c-.26 0-.6.06-.75-.07s-.66-.65-.62-.93c.11-.8.83-.74 1.45-.75s1.26 0 1.32.78c0 .29-.36.67-.65.9s-.49.06-.75.07zM54.35 62.58c-1.25-.29-2.51-.56-3.76-.87-.61-.15-1-.53-.77-1.2s.72-.58 1.3-.44a36.37 36.37 0 0 0 3.61.63c.6.07 1.17.16 1.18.85s-.59.91-1.24.89h-.29zM79.88 73.14c1-.28 2-.53 3.05-.84.57-.18 1.12-.32 1.4.35s-.17 1.09-.74 1.22c-1.37.32-2.75.6-4.14.81-.64.1-1.31-.09-1.29-.93s.66-.83 1.28-.8h.39zM35.65 63.39a8.25 8.25 0 0 1-3 .66V51.79a7.12 7.12 0 0 1 3 .62l.5-1.7a9.52 9.52 0 0 0-3.53-.71v-3.31h-2.18v3.54a7.56 7.56 0 0 0-6.17 7.86c0 4.21 2.38 7.08 6.17 7.64v3.44h2.18V65.8A10.08 10.08 0 0 0 36 65zm-9-5.43c0-2.93 1.46-5.09 3.79-5.86v11.67c-2.33-.77-3.79-2.89-3.79-5.77z"/></symbol><symbol viewBox="0 0 100 96.52" id="logistics-icon" xmlns="http://www.w3.org/2000/svg"><title>consult-icon</title><path fill="#00a9ce" d="M0 34.94l11.11-12c-.65-.48-1.27-1-1.89-1.4A.94.94 0 0 1 9 20c2-2.43 3.92-5 6.09-7.24a8.2 8.2 0 0 1 3.63-2c2-.55 2.53-1.62 2.41-3.56a42.86 42.86 0 0 1 .22-5.75A4.82 4.82 0 0 1 22 0a5.25 5.25 0 0 1 1.3.77c2 2.19 4 4.44 6.06 6.62a2 2 0 0 0 1.32.61c11.84-.25 21.7 8.15 25.42 17.15a28 28 0 0 1 .6 19.95c-1.23 3.71-3.1 7.24-4.7 10.9-1.9 4.35-3.83 8.69-4.81 13.36a20.82 20.82 0 0 0-.36 2.31c-.13 1.4-.27 1.56-1.65 1.56H14.55c-.7 0-1.13-.27-1.17-1-.32-5.57 0-11.05 2.16-16.29a16.22 16.22 0 0 1 4-5.48c2.68-2.55 5.32-5.15 7.86-7.85a7.86 7.86 0 0 0 2.19-4.49 24.29 24.29 0 0 0 0-2.57 3.26 3.26 0 0 0-.56.29A15 15 0 0 1 18.51 40a4.07 4.07 0 0 0-2.86 1.16c-1.41 1.35-2.9 2.62-4.41 3.85a3.43 3.43 0 0 1-1.56.6 7.76 7.76 0 0 1-7.3-2.41 26.84 26.84 0 0 0-2.38-2zm10.71-14.41l1.63 1.2c1.1.81 1.12 1.13.18 2.15-3.1 3.34-6.14 6.73-9.32 10a5.42 5.42 0 0 0-1.58 3.94 4.72 4.72 0 0 0 2.1 4.37c1.66 1.3 3.28 2.12 5.38 1.76a3.43 3.43 0 0 0 1.55-.58c1.59-1.3 3.12-2.66 4.64-4a3.2 3.2 0 0 1 2.26-.91 20.26 20.26 0 0 0 3.68-.4 11.27 11.27 0 0 0 7.47-4.54 11 11 0 0 0 2-5.62c0-.63 0-1.46 1-1.37s.83.92.7 1.53a23.42 23.42 0 0 1-1.14 4.41 3.85 3.85 0 0 0-.22 3c.91 2.86-.15 5.36-1.82 7.66A48 48 0 0 1 21 51.39a13.16 13.16 0 0 0-4.5 6.81 62.34 62.34 0 0 0-1.41 8 44.38 44.38 0 0 0 0 5.23 4.77 4.77 0 0 0 .49.06h28.9c.64 0 .78-.27.9-.84.37-1.81.73-3.63 1.27-5.4A111.22 111.22 0 0 1 53.05 50 33 33 0 0 0 56 41.4c1.54-8.65-.2-16.43-6.21-23a25.14 25.14 0 0 0-16.57-8.6c-3.29.61-5.43-1.06-7.26-3.52C25.1 5.15 24.08 4.18 23 3c0 .64-.08 1.06-.11 1.47-.09 1.79-.2 3.57-.24 5.36a1.42 1.42 0 0 1-1.08 1.52 15.23 15.23 0 0 0-2 .78 10.93 10.93 0 0 0-3.24 1.74c-1.98 2.07-3.73 4.38-5.62 6.66zM98.27 89.12V21.5H87.94c-1.62 0-1.68-.06-1.68-1.73V10.4v-1H59.52c-.68 0-1.73.31-1.68-.87s1-.77 1.68-.77h26.94a2.31 2.31 0 0 1 1.8.75c3.69 3.72 7.41 7.41 11.08 11.15a2.53 2.53 0 0 1 .65 1.61v68c0 1.32-.16 1.48-1.44 1.48H69.17c-.26 0-.58.07-.76-.06s-.58-.5-.58-.77a1 1 0 0 1 .58-.75 3 3 0 0 1 1.15-.1h28.71zM88 11v8.79h8.91zM33.4 96.52H4.5c-1.61 0-1.77-.16-1.72-1.8a10.38 10.38 0 0 1 10.6-10.35h40A10.37 10.37 0 0 1 64 95c0 1.33-.17 1.52-1.52 1.52zm-28.85-1.7h58a22.74 22.74 0 0 0-1.1-3.82c-1.67-3.46-4.57-5-8.37-5H14.63c-.85 0-1.69 0-2.53.08a8.49 8.49 0 0 0-7.55 8.74zM33.38 75.74h21.37a3 3 0 1 1 .25 6.09H12.17c-1.94 0-3.26-1.1-3.39-2.78a3 3 0 0 1 3.13-3.31h21.47zm0 1.63H12.81a8.44 8.44 0 0 0-1 0 1.36 1.36 0 0 0-1.38 1.37 1.33 1.33 0 0 0 1.33 1.4 6.14 6.14 0 0 0 .78 0h41.69c.36 0 .8.07 1-.11a2.58 2.58 0 0 0 1-1.22 1.12 1.12 0 0 0-1-1.35 7 7 0 0 0-1.45-.12z"/><path fill="#00a9ce" d="M65.15 35.57a44.85 44.85 0 0 1-4.09 17.83c-2.36 5.45-4.46 11-6.64 16.55a18.15 18.15 0 0 0-.58 2.16c-.15.6-.37 1.22-1.14 1s-.64-.89-.48-1.46a36.09 36.09 0 0 1 1.17-3.92q3.41-8.45 6.93-16.86a37.13 37.13 0 0 0 2.85-20c-1.72-11.85-8.57-20-19-25.28a27.34 27.34 0 0 0-12.66-2.8 7.64 7.64 0 0 1-1.75 0c-.34-.08-.59-.52-.89-.8.3-.27.59-.76.91-.78a31.08 31.08 0 0 1 4 0 32.56 32.56 0 0 1 20.59 9.42A33.56 33.56 0 0 1 63.58 25a35.21 35.21 0 0 1 1.57 10.57zM74.32 63.48l-9.67 7.46a4.17 4.17 0 0 1-1.12.76 1.09 1.09 0 0 1-1-.22c-.16-.22-.05-.7.06-1s.37-.35.57-.51c3.38-2.6 6.77-5.17 10.12-7.8.78-.61 1.38-.68 2.11 0s1.55 1.29 2.28 2a.89.89 0 0 0 1.33.09c4.55-3 9.12-5.9 13.68-8.84.19-.12.38-.35.57-.35a8.54 8.54 0 0 1 1.28.18 7.44 7.44 0 0 1-.37 1.16c-.09.18-.36.26-.55.38-4.75 3.07-9.52 6.12-14.25 9.22a1.57 1.57 0 0 1-2.3-.15c-.83-.86-1.78-1.57-2.74-2.38zM93.14 72.84v8.28a1.78 1.78 0 0 1-.08.86c-.16.27-.5.58-.76.59a1.12 1.12 0 0 1-.77-.57 2.08 2.08 0 0 1-.09-1V64.53c0-.29-.07-.65.07-.86a1.36 1.36 0 0 1 .83-.62c.23 0 .58.33.74.6a1.86 1.86 0 0 1 .07.86q-.01 4.19-.01 8.33zM76.2 30.13v2.14c0 .71-.37 1.11-1.13 1.11h-4.38a1 1 0 0 1-1.11-1.06v-4.48c0-.76.39-1.12 1.16-1.11h4.38c.79 0 1.11.39 1.09 1.15s-.01 1.51-.01 2.25zm-1.7 1.54v-3.15h-3.14v3.16zM72.89 43.37h-2.24a.92.92 0 0 1-1.06-1v-4.68a.91.91 0 0 1 1-1h4.68a.88.88 0 0 1 .94 1v4.68a.85.85 0 0 1-1 .95h-2.32zm-1.57-1.73h3.18v-3.15h-3.18zM76.2 50.09v2.34a.82.82 0 0 1-.9.91h-4.78c-.66 0-.93-.41-.94-1v-4.58a.94.94 0 0 1 1-1h4.58c.72 0 1 .39 1 1.12v2.24zm-4.85-1.68v3.24h3.15v-3.24zM87.67 74.59v6.74c0 .62 0 1.26-.85 1.27S86 82 86 81.35V68c0-.63.07-1.28.85-1.28s.87.63.86 1.27v6.64zM76.73 76.47v4.88c0 .62-.06 1.26-.87 1.24S75 82 75 81.4v-10c0-.59.09-1.19.83-1.2s.87.62.87 1.25q.03 2.55.03 5.02zM87.3 37.66h-4.59c-.61 0-1.27 0-1.29-.82S82 36 82.65 36h9.17c.64 0 1.27.11 1.26.87s-.67.84-1.3.83zM87.2 44.28h-4.58c-.58 0-1.18-.07-1.2-.82s.6-.88 1.23-.88h9.17c.64 0 1.27.11 1.26.87s-.66.85-1.29.84zM87.23 31h-4.68c-.61 0-1.15-.14-1.13-.88s.56-.81 1.11-.81h9.37c.6 0 1.19.13 1.2.84s-.56.86-1.18.85zM12.58 8.34a12.66 12.66 0 0 1 .92 1.89 1.33 1.33 0 0 1-.21 1.16c-.47.37-.91 0-1.17-.45-.43-.8-.85-1.6-1.27-2.41a1 1 0 0 1 .48-1.45c1.87-1 3.72-2 5.58-3 .52-.28 1-.35 1.34.25s-.09 1-.58 1.24zM71.25 77.44v4c0 .59-.12 1.17-.87 1.16s-.84-.59-.84-1.18v-8.09c0-.56.12-1.09.81-1.11s.88.53.89 1.13v4.09zM80.49 77.39v-4c0-.6.1-1.17.85-1.17s.85.57.86 1.16v8.09c0 .6-.15 1.15-.9 1.12s-.8-.56-.8-1.12c-.01-1.36-.01-2.72-.01-4.08zM84.06 49.21a7.19 7.19 0 0 1 1.75 0c.38.1.66.54 1 .82-.3.28-.59.77-.92.79a22.49 22.49 0 0 1-3.6 0c-.31 0-.59-.53-.88-.82.3-.28.56-.71.91-.79a7.58 7.58 0 0 1 1.75 0zM18.42 22a3.27 3.27 0 0 1-1.11.23 3.89 3.89 0 0 1-1.08-.53c.19-.33.31-.87.59-1 1.56-.54 3.16-1 4.76-1.41.3-.08.9.1 1 .32a1.25 1.25 0 0 1-.2 1.11c-1.16 1.19-2.39 2.3-3.6 3.43-.41.38-.95.52-1.25 0a1.45 1.45 0 0 1 .11-1.15c.18-.34.6-.56.91-.83z"/></symbol><symbol viewBox="0 0 86.99 100" id="medical-icon" xmlns="http://www.w3.org/2000/svg"><title>medical-icon</title><path fill="#00a9ce" d="M72.18 98.43a9 9 0 0 0 10.35-.13 9.69 9.69 0 0 0-2.79-17.49 1.91 1.91 0 0 1-1.61-2.1V44.32a11 11 0 0 0-1.42-5.57 9.66 9.66 0 0 0-13.85-2.85 10 10 0 0 0-4 8.46v37.47a21.27 21.27 0 0 1-.23 3.38 15.51 15.51 0 0 1-15.71 12.9c-7.92-.28-14.44-6.43-14.92-14-.22-3.67-.19-7.41-.17-11v-4.77a1.13 1.13 0 0 1 .18-.59l.22-.45.55-.09h2.4v-2.72c0-2.5.26-2.83 2.71-3.47.24-.06.48-.14.71-.22a26.92 26.92 0 0 0 18.31-18.48A26.31 26.31 0 0 0 54 34.05h-3.41V6.88A6.92 6.92 0 0 0 49 2.09 7.74 7.74 0 0 0 45.35 0h-2c-.64.49-.7.73-.57 1.14s.38.64 1.39.66c2.83 0 4.58 1.88 4.59 4.79v25.86a4.25 4.25 0 0 1-.06.64l-.12 1h-3.2a19.27 19.27 0 0 1-1.9 8.91 18.52 18.52 0 0 1-6.69 7.44 17.93 17.93 0 0 1-9.49 2.85 17.88 17.88 0 0 1-11.8-4A18.44 18.44 0 0 1 8.56 34H5.31l-.07-1v-4.84V6.44a4.39 4.39 0 0 1 4.57-4.66H10a2.31 2.31 0 0 0 .48 0 2.12 2.12 0 0 0 .65-.9c.06-.23 0-.42-.62-.85H8.72l-.53.13A7.4 7.4 0 0 0 7 .59a6.21 6.21 0 0 0-3.61 6.09V34.09H0A26.16 26.16 0 0 0 3.4 48a27.16 27.16 0 0 0 18.7 13.52l.63.14v5.59h3.33V82.06a19.66 19.66 0 0 0 .58 4.89c2 6.92 6.4 11.14 13.19 12.55s12.71-.76 17.27-6.5a17 17 0 0 0 3.52-11.06v-31.2c0-2.52 0-5.13.1-7.7a7.69 7.69 0 0 1 7.07-7.15h.69a7.62 7.62 0 0 1 5.22 2 8.62 8.62 0 0 1 2.64 6.44v34.4a1.89 1.89 0 0 1-1.62 2.1 9.73 9.73 0 0 0-7.1 7.65 9.37 9.37 0 0 0 4.56 9.95zM24.5 65.35v-5.23C11.5 57.87 3.83 50 1.72 36.85l-.15-.93h5.17l.08.71a20.24 20.24 0 0 0 9.23 15.27 19.51 19.51 0 0 0 12.59 3.17 20.28 20.28 0 0 0 18.5-18.43l.08-.71h4.71v.79C52 45 45 58.06 29.45 60.08v5.27zm52.75 16.89a7.94 7.94 0 0 1 .05 15.88h-.09a7.94 7.94 0 0 1 0-15.88z"/><path fill="#00a9ce" d="M77 80.91a2.79 2.79 0 0 0 .22-.32 2.75 2.75 0 0 0 .22.32zM72.6 90.14a4.61 4.61 0 0 0 4.64 4.67 4.66 4.66 0 0 0 3.32-1.39 4.58 4.58 0 0 0 1.36-3.27 4.66 4.66 0 0 0-9.32 0zm2.66-2a2.84 2.84 0 0 1 4.84 2 2.8 2.8 0 0 1-.84 2 2.88 2.88 0 0 1-2 .85 2.82 2.82 0 0 1-2.8-2.81 2.87 2.87 0 0 1 .8-2.04zM8.35 7.59a4.77 4.77 0 0 1 .36 1.25v9.27a1.32 1.32 0 0 1-.11.74 1.09 1.09 0 0 1-.75.45c-.24 0-.52-.32-.67-.57a1.63 1.63 0 0 1-.04-.73V9a5.24 5.24 0 0 1 .43-1.41zM8.73 24.27v2.61c0 .56-.27 1-.85.9a1.23 1.23 0 0 1-.72-.91c-.07-1.7-.07-3.42 0-5.12 0-.33.47-.64.72-1 .28.32.76.61.81 1a17.17 17.17 0 0 1 .04 2.52zM47.35 7.59a4.77 4.77 0 0 1 .36 1.25v9.27a1.32 1.32 0 0 1-.11.74 1.09 1.09 0 0 1-.75.45c-.24 0-.52-.32-.67-.57a1.63 1.63 0 0 1-.07-.76v-9a5.24 5.24 0 0 1 .43-1.41zM47.73 24.27v2.61c0 .56-.27 1-.85.9a1.23 1.23 0 0 1-.72-.91c-.07-1.7-.07-3.42 0-5.12 0-.33.47-.64.72-1 .28.32.76.61.81 1a17.17 17.17 0 0 1 .04 2.52z"/></symbol><symbol viewBox="0 0 98.19 98.19" id="oil-gas-icon" xmlns="http://www.w3.org/2000/svg"><title>oil-gas-icon</title><path fill="#00a9ce" d="M92.5 86.82H81.25a4 4 0 0 1 0-7.93h6.43a5.68 5.68 0 0 0 0-11.36H62.81V59.6H66v-1.72h-3.19V30.66H66v-1.72h-3.19V1.72H66V0H0v1.72h3.22v27.22H0v1.72h3.22v27.22H0v1.72h3.22v27.22H0v1.72h17.71l.12.6A7.31 7.31 0 0 0 25 95h12l.18.5a4.08 4.08 0 0 0 3.84 2.72H92.5a5.68 5.68 0 1 0 0-11.36zM4.93 1.72H61.1v27.22H37.62L33 21.78l-4.6 7.16H4.93zm42.12 55.11a15.17 15.17 0 0 0 1.29-6.13v-.57a15.28 15.28 0 0 0-2.44-8.29l-7.18-11.18H61.1v27.22H46.59zM33 64.31A13.63 13.63 0 0 1 19.4 50.7v-.57a13.58 13.58 0 0 1 2.16-7.36L33 25l.11.16 11.35 17.61a13.57 13.57 0 0 1 2.16 7.36v.57A13.63 13.63 0 0 1 33 64.31zM4.93 30.66h22.38l-.12.19-7.06 11a15.29 15.29 0 0 0-2.44 8.29v.57A15.16 15.16 0 0 0 19 56.83l.46 1.05H4.93zm0 56.17V59.6H19.4v-1.5l1.35 1.75a15.27 15.27 0 0 0 24.53 0l1.35-1.8v1.55H61.1v27.22zm87.57 9.64H41.05a2.36 2.36 0 0 1-2.36-2.36v-.86H25a5.58 5.58 0 0 1-5.24-3.71l-.36-1H66v-1.72h-3.19V69.24h24.87a4 4 0 0 1 0 7.93h-6.43a5.68 5.68 0 1 0 0 11.36H92.5a4 4 0 1 1 0 7.93z"/></symbol><symbol viewBox="0 0 84.39 100.5" id="telco-icon" xmlns="http://www.w3.org/2000/svg"><title>telco-icon</title><path fill="#00a9ce" d="M6.39 41a.8.8 0 0 0-.8-.8.8.8 0 0 0-.8.8 41.8 41.8 0 0 0 3.14 16.07.8.8 0 0 0 .74.5.81.81 0 0 0 .33-.06.8.8 0 0 0 .44-1A40.23 40.23 0 0 1 6.39 41zM11 59.86a.8.8 0 1 0-1.42.74A41.75 41.75 0 0 0 14 67.4a.8.8 0 0 0 1.24-1A40.1 40.1 0 0 1 11 59.86z"/><path fill="#00a9ce" d="M61.3 30.11a.8.8 0 0 0 .55-.56L63.06 25a3.8 3.8 0 0 0 2.74-1 3.94 3.94 0 0 0 1.27-2.9 3.91 3.91 0 0 0-7.83 0v.1l-4.52 1.21a.79.79 0 0 0-.48.42l-30.4-5.05c-4-3-8-5.46-10.17-5.46a1.92 1.92 0 0 0-1.41.52 41.94 41.94 0 0 0 10.42 66.9l-4.94 18.43a1.85 1.85 0 0 0 1.79 2.33h28.4a1.85 1.85 0 0 0 1.79-2.33L46 84.2a41.6 41.6 0 0 0 25.53-12.08c.6-.6 2-2-4.47-10.84zM45.56 82.62h-.66A41 41 0 0 1 24 78.59l-.88-.43A40.36 40.36 0 0 1 12 15.44a11 11 0 0 0 .54 1.56.79.79 0 0 0 .13.33C15 22.25 21.32 30 27.66 37a.8.8 0 0 0 .19.21c3.34 3.68 6.67 7.16 9.42 9.91C49.9 59.73 61.8 69.4 67.66 72a.78.78 0 0 0 .28.12 9.89 9.89 0 0 0 1 .34 40 40 0 0 1-23.33 10.2zm15.35-61a2.31 2.31 0 1 1 2.25 1.8 2.26 2.26 0 0 1-.51-.06.8.8 0 0 0-1 .57l-1 3.86-4.19-4.19 3.86-1a.8.8 0 0 0 .59-.97zm-28.5 5.18c1.85 1.62 3.78 3.4 5.74 5.25l-9.61 3.57c-2.76-3.05-5.12-5.83-7.1-8.3 3.67-.19 7.34-.32 10.97-.52zm14.68 11.61l10.2-10.2-5.72 14.73a160.35 160.35 0 0 0-4.48-4.53zm-1.14-1.11l-1.21-1.16-3.63-3.48L56.2 27zm-6.5-4c1.41 1.34 2.83 2.71 4.23 4.05l1.14 1.1-7 7q-4.51-4.53-8.14-8.51zM46 39.54q2.48 2.41 5 5l-3.8 9.77c-2.6-2.38-5.33-5-8.16-7.81zm6.18 6.33q2.73 2.94 5.43 6.09c-.15 3.61-.32 7.27-.52 11-2.62-2.1-5.53-4.59-8.65-7.42zM39.82 31.43q-2.62-2.49-5.12-4.73l3.39-.14h.38c5.39-.22 10.95-.46 16.5-.75zm18 14.68l-.15 3.52c-1.62-1.87-3.25-3.69-4.88-5.43l5.79-14.89c-.29 5.55-.53 11.11-.75 16.5zM20.24 25.78a72.84 72.84 0 0 1-5.5-7.9l8.51 1.42c2.12 1.58 4.58 3.56 7.42 6-3.47.13-6.95.29-10.43.48zm38.35 38.35c.19-3.48.35-7 .5-10.37 2.74 3.27 4.85 6 6.47 8.18l1.48 8a64.17 64.17 0 0 1-8.45-5.81zm.6-12.74c.08-1.79.15-3.54.22-5.22v-.1c.19-4.58.39-9.28.62-14l4.88 26.33c-1.56-2.01-3.45-4.33-5.71-7zM38.2 25h-.48l-4.74.2c-1.6-1.39-3.91-3.35-6.43-5.32l26.62 4.43c-5.04.24-10.07.45-14.97.69zm-24.41-8.89c-.53-1.16-.66-1.89-.4-2.14a.5.5 0 0 1 .28-.05c1 0 3.18 1 6.59 3.27zM70.4 71a.51.51 0 0 1-.28.05 4.22 4.22 0 0 1-1.3-.31l-1-5.6c2.57 3.97 2.88 5.55 2.58 5.86zM41.9 84.39c.83 0 1.65 0 2.46-.08l3.82 14.27a.25.25 0 0 1-.24.32H19.53a.25.25 0 0 1-.24-.32l4.85-18.12a41.78 41.78 0 0 0 17.76 3.93zM63.85 14.29a7 7 0 0 1 6.45 6.45.8.8 0 1 0 1.6 0 8.6 8.6 0 0 0-8.05-8.05.8.8 0 0 0 0 1.6z"/><path fill="#00a9ce" d="M63.85 6.65a.8.8 0 1 0 0 1.6c6.19 0 12.5 6.31 12.5 12.5a.8.8 0 1 0 1.6 0c0-6.99-7.12-14.1-14.1-14.1z"/><path fill="#00a9ce" d="M62.64 0a.8.8 0 1 0 0 1.6c10 0 20.15 10.17 20.15 20.15a.8.8 0 0 0 1.6 0C84.39 11 73.41 0 62.64 0z"/></symbol>
</svg>