<?xml version="1.0" encoding="utf-8"?><svg xmlns="http://www.w3.org/2000/svg" xmlns:xlink="http://www.w3.org/1999/xlink"><symbol viewBox="0 0 100 92.49" id="customers-icon" xmlns="http://www.w3.org/2000/svg"><title>customers-icon</title><path fill="#009fd6" d="M54.3 44.73A12.68 12.68 0 1 1 67 32.05a12.69 12.69 0 0 1-12.7 12.68zm0-23.23a10.55 10.55 0 1 0 10.55 10.55A10.56 10.56 0 0 0 54.3 21.51zM74.62 71.1H34a1.06 1.06 0 0 1-1.09-1.1v-6.5c0-7.5 5.89-13.64 13.09-13.64h16.55c7.24 0 13.13 6.13 13.13 13.67V70a1.06 1.06 0 0 1-1.06 1.1zM35 69h38.55v-5.47a11.29 11.29 0 0 0-11-11.53H46a11.29 11.29 0 0 0-11 11.53z"/><path fill="#009fd6" d="M54.29 92.49A45.56 45.56 0 0 1 9.5 54a1.06 1.06 0 0 1 1-1.22 7.88 7.88 0 0 0 7.45-7.88 8 8 0 0 0-6.65-7.81 1.07 1.07 0 0 1-.86-1.32A45.33 45.33 0 0 1 72.07 5.49 1.07 1.07 0 0 1 72.56 7a9.66 9.66 0 0 0-1.32 4.88A9.75 9.75 0 0 0 88 18.67a1.06 1.06 0 0 1 1.6.07 45.47 45.47 0 0 1 10 28.44 44.42 44.42 0 0 1-3.77 18 1.06 1.06 0 0 1-1.56.46A7.9 7.9 0 0 0 85.2 78.6a1.06 1.06 0 0 1 .08 1.62 45.11 45.11 0 0 1-30.99 12.27zm-42.51-37.7a43.44 43.44 0 0 0 42.51 35.57A43 43 0 0 0 83 79.47a9.94 9.94 0 0 1-3-7.16 10 10 0 0 1 14.43-9 42.36 42.36 0 0 0 3.13-16.1A43.35 43.35 0 0 0 88.63 21 11.87 11.87 0 0 1 70.17 7a43.21 43.21 0 0 0-57.39 28.26 10.13 10.13 0 0 1 7.29 9.66 10 10 0 0 1-8.29 9.87z"/><path fill="#009fd6" d="M88.76 20.47a1.06 1.06 0 0 1-.76-1.8 9.64 9.64 0 0 0 2.77-6.78A9.76 9.76 0 0 0 72.57 7a1.06 1.06 0 1 1-1.85-1.06 11.88 11.88 0 1 1 18.8 14.21 1.06 1.06 0 0 1-.76.32zM90 82.33a9.84 9.84 0 0 1-6-2 1.06 1.06 0 0 1 1.3-1.69A7.73 7.73 0 0 0 90 80.2a7.9 7.9 0 0 0 4.33-14.52 1.06 1.06 0 0 1 1.16-1.78A10 10 0 0 1 90 82.33zM10 54.95a10 10 0 1 1 0-20.07 9.51 9.51 0 0 1 1.59.13 1.06 1.06 0 1 1-.34 2.1A7.67 7.67 0 0 0 10 37a7.91 7.91 0 1 0 .12 15.81h.23a1 1 0 0 1 1.2.91 1.06 1.06 0 0 1-.91 1.2 4.93 4.93 0 0 1-.64.03z"/></symbol><symbol viewBox="0 0 94.19 100" id="globe-icon" xmlns="http://www.w3.org/2000/svg"><title>globe-icon</title><path fill="#009fd6" d="M46.93 81.67a34.4 34.4 0 1 1 34.4-34.4 34.44 34.44 0 0 1-34.4 34.4zm0-66.67a32.27 32.27 0 1 0 32.26 32.27A32.3 32.3 0 0 0 46.93 15z"/><path fill="#009fd6" d="M46.93 81.67c-9.32 0-16.62-15.11-16.62-34.4s7.3-34.4 16.62-34.4S63.54 28 63.54 47.27s-7.3 34.4-16.61 34.4zm0-66.67c-7.85 0-14.49 14.78-14.49 32.27s6.63 32.27 14.49 32.27 14.48-14.78 14.48-32.27S54.78 15 46.93 15z"/><path fill="#009fd6" d="M46.93 63.89c-19.29 0-34.4-7.3-34.4-16.62s15.11-16.62 34.4-16.62 34.4 7.3 34.4 16.62-15.12 16.62-34.4 16.62zm0-31.1c-17.49 0-32.27 6.63-32.27 14.49s14.77 14.48 32.27 14.48S79.2 55.12 79.2 47.27 64.42 32.78 46.93 32.78z"/><path fill="#009fd6" d="M46.93 81.67a1.06 1.06 0 0 1-1.06-1.06V13.94a1.06 1.06 0 0 1 2.13 0v66.67a1.06 1.06 0 0 1-1.07 1.06z"/><path fill="#009fd6" d="M46.93 81.67a1.06 1.06 0 0 1-1.06-1.06V13.94a1.06 1.06 0 0 1 2.13 0v66.67a1.06 1.06 0 0 1-1.07 1.06z"/><path fill="#009fd6" d="M80.26 48.34H13.59a1.06 1.06 0 1 1 0-2.13h66.67a1.06 1.06 0 1 1 0 2.13z"/><path fill="#009fd6" d="M80.26 48.34H13.59a1.06 1.06 0 1 1 0-2.13h66.67a1.06 1.06 0 1 1 0 2.13z"/><path fill="#009fd6" d="M47 94.48a46.86 46.86 0 0 1-20.45-4.66 1.06 1.06 0 1 1 .93-1.92 45.57 45.57 0 0 0 52.6-9.69c11-11.65 14.7-28 10-43.82S73.23 7 57.68 3.32C41.27-.58 24.15 5.24 13 18.49a44.71 44.71 0 0 0-7.32 46.58 1.06 1.06 0 1 1-2 .84 46.83 46.83 0 0 1 7.64-48.78C23 3.25 41-2.84 58.17 1.25c16.3 3.88 29 16 33.92 32.54s1 33.67-10.46 45.89A47.64 47.64 0 0 1 47 94.48z"/><path fill="#009fd6" d="M31.55 100a1.06 1.06 0 0 1-1-.63L26 89.3a1.06 1.06 0 0 1 .7-1.47l10.46-2.72a1.06 1.06 0 0 1 .54 2.06l-9.2 2.41 4 8.92a1.06 1.06 0 0 1-1 1.5z"/></symbol><symbol viewBox="0 0 77.21 100" id="projects-icon" xmlns="http://www.w3.org/2000/svg"><title>projects-icon</title><path fill="#009fd6" d="M69.06 60.37a1.15 1.15 0 0 1-1-.52C63 52.14 51.45 47.16 38.6 47.16s-24.43 5-29.5 12.69a1.15 1.15 0 0 1-1.92-1.26C12.67 50.25 25 44.86 38.6 44.86S64.54 50.25 70 58.59a1.15 1.15 0 0 1-.33 1.59 1.13 1.13 0 0 1-.61.19z"/><path fill="#009fd6" d="M67.49 93.78H9.72a1.15 1.15 0 0 1-1.11-.86L0 59.51a1.15 1.15 0 0 1 1.11-1.43h74.95a1.15 1.15 0 0 1 1.11 1.43L68.6 92.92a1.15 1.15 0 0 1-1.11.86zm-56.87-2.3h56l8-31.12h-72zM75.38 100H1.83a1.15 1.15 0 0 1 0-2.3h73.55a1.15 1.15 0 1 1 0 2.3zM18.42 34.15h-1.93a7.68 7.68 0 1 1 0-15.35h1.93a.77.77 0 0 1 .77.77v13.81a.77.77 0 0 1-.77.77zm-1.93-13.82a6.14 6.14 0 1 0 0 12.27h1.16V20.33zM59.87 34.15h-1.93a.77.77 0 0 1-.77-.77V19.56a.77.77 0 0 1 .77-.77h1.93a7.68 7.68 0 1 1 0 15.35zm-1.16-1.54h1.16a6.14 6.14 0 1 0 0-12.27h-1.16zM38.16 42.07c-7.21 0-13.06-11-13.06-18.15a13.06 13.06 0 1 1 26.11 0c.01 7.17-5.84 18.15-13.05 18.15zm0-29.66a11.53 11.53 0 0 0-11.51 11.52c0 6.41 5.27 16.61 11.52 16.61s11.52-10.2 11.52-16.61a11.53 11.53 0 0 0-11.53-11.52z"/><path fill="#009fd6" d="M59.54 20.33a.77.77 0 0 1-.77-.77c0-8.51-6.88-18-16.1-18h-9c-9.22 0-16.12 9.52-16.12 18a.77.77 0 1 1-1.54 0C16.06 10.33 23.61 0 33.71 0h9c10.05 0 17.6 10.33 17.6 19.56a.77.77 0 0 1-.77.77zM25.88 44h-.06l-4.91-.38c-4-.83-6.55-2.37-7.71-4.57-1-1.81-.92-4 .1-6.47a.77.77 0 0 1 1.42.58c-.84 2-.89 3.78-.16 5.16.93 1.76 3.2 3.06 6.57 3.77l4.81.37a.77.77 0 0 1-.06 1.54z"/></symbol><symbol viewBox="0 0 95 100" id="years-icon" xmlns="http://www.w3.org/2000/svg"><title>years-icon</title><path fill="#009fd6" d="M47.46 20.33a1.07 1.07 0 0 1-1.07-1.07v-3.83a1.07 1.07 0 0 1 2.15 0v3.83a1.07 1.07 0 0 1-1.08 1.07zM27.58 28.57a1.07 1.07 0 0 1-.76-.31l-2.71-2.71A1.07 1.07 0 1 1 25.63 24l2.71 2.71a1.07 1.07 0 0 1-.76 1.83zM19.34 48.45h-3.83a1.07 1.07 0 0 1 0-2.15h3.83a1.07 1.07 0 1 1 0 2.15zM24.87 71a1.07 1.07 0 0 1-.76-1.83l2.71-2.71A1.07 1.07 0 0 1 28.33 68l-2.71 2.71a1.07 1.07 0 0 1-.75.29zM47.46 80.4a1.07 1.07 0 0 1-1.07-1.07V75.5a1.07 1.07 0 0 1 2.15 0v3.83a1.07 1.07 0 0 1-1.08 1.07zM70.05 71a1.07 1.07 0 0 1-.76-.31L66.59 68a1.07 1.07 0 0 1 1.52-1.52l2.71 2.71a1.07 1.07 0 0 1-.77 1.81zM79.41 48.45h-3.83a1.07 1.07 0 1 1 0-2.15h3.83a1.07 1.07 0 0 1 0 2.15zM67.35 28.57a1.07 1.07 0 0 1-.76-1.83l2.7-2.74a1.07 1.07 0 0 1 1.52 1.52l-2.71 2.71a1.07 1.07 0 0 1-.75.34z"/><path fill="#009fd6" d="M47.46 80.9a33.27 33.27 0 1 1 33.27-33.27A33.31 33.31 0 0 1 47.46 80.9zm0-64.39a31.12 31.12 0 1 0 31.13 31.12 31.16 31.16 0 0 0-31.13-31.12z"/><path fill="#009fd6" d="M47.46 54.2a5.07 5.07 0 1 1 5.07-5.07 5.07 5.07 0 0 1-5.07 5.07zm0-8a2.92 2.92 0 1 0 2.92 2.92 2.92 2.92 0 0 0-2.92-2.91z"/><path fill="#009fd6" d="M43.47 50.2H32.23a1.07 1.07 0 0 1 0-2.15h11.24a1.07 1.07 0 0 1 0 2.15zM47.46 46.21a1.07 1.07 0 0 1-1.07-1.07V29a1.07 1.07 0 0 1 2.15 0v16.13a1.07 1.07 0 0 1-1.08 1.08z"/><path fill="#009fd6" d="M47.4 95.29a47.26 47.26 0 0 1-20.62-4.7 1.07 1.07 0 1 1 .94-1.93 46 46 0 0 0 53-9.77c11.11-11.76 14.87-28.28 10.1-44.19S73.86 7.08 58.17 3.35C41.63-.58 24.36 5.28 13.1 18.65a45.09 45.09 0 0 0-7.37 47 1.07 1.07 0 0 1-2 .84 47.22 47.22 0 0 1 7.7-49.2c11.79-14 29.88-20.13 47.22-16 16.46 3.88 29.24 16.15 34.23 32.79s1 34-10.55 46.28A48 48 0 0 1 47.4 95.29z"/><path fill="#009fd6" d="M29.45 100a1.07 1.07 0 0 1-1-.63l-4.56-10.16a1.07 1.07 0 0 1 .71-1.48L35.15 85a1.07 1.07 0 0 1 .54 2.08l-9.32 2.43 4.05 9a1.07 1.07 0 0 1-1 1.51z"/></symbol></svg>