<svg xmlns="http://www.w3.org/2000/svg" viewBox="0 0 120.34 112.11"><defs><style>.a{fill:#f47820}.b{fill:#90278c}.c{fill:#e2e3e4}.d{fill:#76bd1d}.e{fill:#00a9ce}</style></defs><title>kava-brand-el</title><path class="a" d="M67.85 103.19a1.06 1.06 0 0 1-.52-.14L25.78 79.74a1.06 1.06 0 0 1 0-1.83l42-24.34a1.06 1.06 0 0 1 1.59.92l-.43 47.65a1.06 1.06 0 0 1-1.06 1zm.43-49.54a.83.83 0 0 0-.42.11l-42 24.34a.83.83 0 0 0 0 1.44l41.56 23.31a.83.83 0 0 0 1.24-.72l.43-47.65a.83.83 0 0 0-.83-.84z"/><path class="b" d="M106.53 70.08a1.05 1.05 0 0 1-.52-.14L64.45 46.63a1.06 1.06 0 0 1 0-1.83l42-24.34a1.06 1.06 0 0 1 1.59.92L107.59 69a1.06 1.06 0 0 1-1.06 1zm.47-49.54a.83.83 0 0 0-.42.11L64.55 45a.83.83 0 0 0 0 1.44l41.56 23.31a.83.83 0 0 0 1.24-.72l.43-47.65a.83.83 0 0 0-.83-.84z"/><path class="c" d="M77.72 112.11a1.06 1.06 0 0 1-1.06-1l-.43-47.65a1.06 1.06 0 0 1 1.59-.92l42 24.34a1.06 1.06 0 0 1 0 1.83L78.24 112a1.05 1.05 0 0 1-.52.11zm-.43-49.54a.83.83 0 0 0-.83.84l.43 47.65a.83.83 0 0 0 1.24.72l41.56-23.31a.83.83 0 0 0 0-1.44l-42-24.34a.83.83 0 0 0-.4-.12z"/><path class="d" d="M24.64 58.29a1.06 1.06 0 0 1-1.06-1.07L24.19 1a1.06 1.06 0 0 1 1.57-.86l49 27.57a1.06 1.06 0 0 1 0 1.83L25.17 58.15a1.05 1.05 0 0 1-.53.14zM24.41 1l-.6 56.18a.83.83 0 0 0 1.25.73l49.55-28.57a.83.83 0 0 0 0-1.44L25.65.33a.83.83 0 0 0-1.24.67z"/><path class="e" d="M1.06 82.54a1.05 1.05 0 0 1-.53-.15 1 1 0 0 1-.53-.92l.6-65.9a1.06 1.06 0 0 1 1.57-.91L59.64 46.9a1.06 1.06 0 0 1 0 1.83L1.59 82.39a1.05 1.05 0 0 1-.53.15zm.6-67.78a.83.83 0 0 0-.83.82l-.6 65.9a.83.83 0 0 0 1.25.73l58.06-33.67a.83.83 0 0 0 0-1.44L2.06 14.86a.83.83 0 0 0-.41-.11z"/></svg>