<svg xmlns="http://www.w3.org/2000/svg" viewBox="0 0 44.69 34.93"><title>bg-k-icons</title><path d="M43.81 15.49a.16.16 0 0 1-.11 0l-.7-.7a.16.16 0 0 1 0-.1.14.14 0 0 1 0-.11l.74-.74a.15.15 0 0 1 .21 0l.7.7a.15.15 0 0 1 0 .21l-.74.74a.14.14 0 0 1-.1 0zm0-1.61l-.74.74.7.7.74-.74-.7-.7z" fill="#00639b"/><path d="M.73 9.11H.66l-.39-.4v-.07l.41-.41h.07l.39.39v.07l-.41.41" fill="#44c3d5"/><path d="M23 34.91a.08.08 0 0 1-.11 0l-.62-.62a.08.08 0 0 1 0-.11l.65-.65a.08.08 0 0 1 .11 0l.62.62a.08.08 0 0 1 0 .11l-.65.65" fill="#f47820"/><path d="M.83 24.31a.08.08 0 0 1-.12 0l-.71-.7a.08.08 0 0 1 0-.12l.72-.72a.08.08 0 0 1 .12 0l.69.69a.08.08 0 0 1 0 .12l-.72.72" fill="#76bd1d"/><path d="M1.24 24.36a.12.12 0 0 1-.08 0l-.69-.69a.12.12 0 0 1 0-.16l.72-.72a.12.12 0 0 1 .16 0l.69.69a.12.12 0 0 1 0 .16l-.72.72a.11.11 0 0 1-.08 0zm0-1.58l-.72.72.69.69.79-.63-.7-.76z" fill="#76bd1d"/><path d="M25.29 2.11h-.06l-.34-.34v-.06l.36-.36h.06l.34.34v.06l-.36.36m11.81 2.3H36V5.5h1.1z" fill="#90278c"/><path d="M11 30.52h-1v-1h1zM10.23.46A.46.46 0 1 1 9.78 0a.46.46 0 0 1 .45.46z" fill="#e2e3e4"/><path d="M9.78 1.34a.48.48 0 1 1 .48-.48.48.48 0 0 1-.48.48zm0-.92a.43.43 0 1 0 .43.43.44.44 0 0 0-.43-.43z" fill="#76bd1d"/><path d="M44.25 25.54a.62.62 0 1 1-.62-.62.62.62 0 0 1 .62.62z" fill="#e2e3e4"/></svg>