<svg xmlns="http://www.w3.org/2000/svg" viewBox="0 0 841.89 595.28"><title>bg-brand-ele</title><path d="M126 256.12l-11.2-11.2a1.29 1.29 0 0 1 .08-1.81l10.68-10.68a1.29 1.29 0 0 1 1.81-.08l11.2 11.2a1.29 1.29 0 0 1-.08 1.81L127.83 256a1.29 1.29 0 0 1-1.81.08" fill="none" stroke="#00639b" stroke-miterlimit="10" stroke-width="2"/><path d="M781.82 160.47l-6.23-6.23a.72.72 0 0 1 0-1l5.94-5.94a.72.72 0 0 1 1 0l6.23 6.23a.72.72 0 0 1 0 1l-5.94 5.94a.72.72 0 0 1-1 0" fill="#44c3d5"/><path d="M442.8 552.71l-9.94-9.94a1.14 1.14 0 0 1 .08-1.61l9.48-9.48a1.14 1.14 0 0 1 1.61-.08l9.94 9.94a1.14 1.14 0 0 1-.08 1.61l-9.48 9.48a1.14 1.14 0 0 1-1.61.08M371.5 430.2l-9.94-9.94a1.14 1.14 0 0 1 .08-1.61l9.48-9.48a1.14 1.14 0 0 1 1.61-.08l9.94 9.94a1.14 1.14 0 0 1-.08 1.61l-9.48 9.48a1.14 1.14 0 0 1-1.61.08" fill="#f47820"/><path d="M780.19 391.55l-11-11a1.26 1.26 0 0 1 .08-1.78l10.47-10.47a1.26 1.26 0 0 1 1.78-.08l11 11a1.26 1.26 0 0 1-.08 1.78L782 391.47a1.26 1.26 0 0 1-1.78.08" fill="#76bd1d"/><path d="M773.19 391.55l-11-11a1.26 1.26 0 0 1 .08-1.78l10.47-10.47a1.26 1.26 0 0 1 1.78-.08l11 11a1.26 1.26 0 0 1-.08 1.78L775 391.47a1.26 1.26 0 0 1-1.78.08" fill="none" stroke="#76bd1d" stroke-miterlimit="10"/><path d="M408.39 44l-5.4-5.4a.62.62 0 0 1 0-.87l5.15-5.15a.62.62 0 0 1 .87 0l5.4 5.4a.62.62 0 0 1 0 .87L409.27 44a.62.62 0 0 1-.87 0" fill="#90278c"/><path fill="#e2e3e4" d="M245.54 105.67h-16.65V89.02h16.65zM639.94 485.93h-14.82v-14.82h14.82z"/><circle cx="644.23" cy="28.98" r="6.98" fill="#e2e3e4"/><circle cx="644.23" cy="34.98" r="6.98" fill="none" stroke="#76bd1d" stroke-miterlimit="10" stroke-width=".75"/><circle cx="129.51" cy="410.23" r="9.42" fill="#e2e3e4"/></svg>