<svg xmlns="http://www.w3.org/2000/svg" viewBox="0 0 647.16 185.6"><title>bg-brand-ele-hor</title><path d="M80.84 152.35l-11.2-11.2a1.29 1.29 0 0 1 .08-1.81l10.68-10.68a1.29 1.29 0 0 1 1.81-.08l11.2 11.2a1.29 1.29 0 0 1-.08 1.81l-10.68 10.68a1.29 1.29 0 0 1-1.81.08" fill="none" stroke="#00639b" stroke-miterlimit="10" stroke-width="2"/><path d="M297.11 175.3l-9.94-9.94a1.14 1.14 0 0 1 .08-1.61l9.48-9.48a1.14 1.14 0 0 1 1.61-.08l9.94 9.94a1.14 1.14 0 0 1-.08 1.61l-9.48 9.48a1.14 1.14 0 0 1-1.61.08" fill="#f47820"/><path d="M205.81 62.8l-9.94-9.94a1.14 1.14 0 0 1 .08-1.61l9.48-9.48a1.14 1.14 0 0 1 1.61-.08l9.96 9.94a1.14 1.14 0 0 1-.08 1.61l-9.48 9.48a1.14 1.14 0 0 1-1.61.08" fill="none" stroke="#f47820" stroke-miterlimit="10"/><path d="M634.5 24.15l-11-11a1.26 1.26 0 0 1 .08-1.78L634.06.91a1.26 1.26 0 0 1 1.78-.08l11 11a1.26 1.26 0 0 1-.08 1.78l-10.49 10.45a1.26 1.26 0 0 1-1.78.08" fill="#76bd1d"/><path d="M627.5 24.15l-11-11a1.26 1.26 0 0 1 .08-1.78L627.06.91a1.26 1.26 0 0 1 1.78-.08l11 11a1.26 1.26 0 0 1-.08 1.78l-10.49 10.45a1.26 1.26 0 0 1-1.78.08" fill="none" stroke="#76bd1d" stroke-miterlimit="10"/><path d="M195.23 47.12l-5.4-5.4a.62.62 0 0 1 0-.87L195 35.7a.62.62 0 0 1 .87 0l5.4 5.4a.62.62 0 0 1 0 .87l-5.15 5.15a.62.62 0 0 1-.87 0" fill="#90278c"/><path fill="#e2e3e4" d="M564.24 118.52h-14.82V103.7h14.82z"/><circle cx="438.54" cy="41.57" r="6.98" fill="#e2e3e4"/><circle cx="438.54" cy="47.57" r="6.98" fill="none" stroke="#76bd1d" stroke-miterlimit="10" stroke-width=".75"/><circle cx="9.42" cy="21.9" r="9.42" fill="#e2e3e4"/></svg>