<svg xmlns="http://www.w3.org/2000/svg" viewBox="0 0 100 100"><title>kava-logo-f</title><path d="M52.78 98.14l45.36-45.36a5.21 5.21 0 0 0-.34-7.34L54.56 2.2a5.21 5.21 0 0 0-7.34-.34L1.86 47.22a5.21 5.21 0 0 0 .34 7.34L45.44 97.8a5.21 5.21 0 0 0 7.34.34" fill="#fff" stroke="#00a9ce" stroke-miterlimit="10"/><path d="M44.12 73.06q-6-8.43-12-16.85v17.33H45a1 1 0 0 1-.88-.48z" fill="#f47820"/><path fill="#76bd1d" d="M45 32.16H32.08v18.11L45 32.16z"/><path d="M67.92 26.46h-9.75c-.7 0-1.92 1.61-1.92 1.61L38.44 53.22s.2.32.31.47q6.92 9.68 13.84 19.37a1 1 0 0 0 1 .48h9.93c-5.33-7.07-9.68-13.44-15-20.44 8.98-12.39 9.9-14.1 19.4-26.64z" fill="#00a9ce"/></svg>